<svg xmlns="http://www.w3.org/2000/svg" xmlns:xlink="http://www.w3.org/1999/xlink" width="500" zoomAndPan="magnify" viewBox="0 0 375 374.999991" height="500" preserveAspectRatio="xMidYMid meet" version="1.0"><defs><g/><clipPath id="9501ccbdb1"><path d="M 15.566406 126 L 102 126 L 102 216.476562 L 15.566406 216.476562 Z M 15.566406 126 " clip-rule="nonzero"/></clipPath><clipPath id="2e8d147023"><path d="M 71 157 L 226.316406 157 L 226.316406 182 L 71 182 Z M 71 157 " clip-rule="nonzero"/></clipPath></defs><g clip-path="url(#9501ccbdb1)"><path fill="#568203" d="M 92.046875 154.558594 C 83.347656 138.972656 45.828125 112.226562 30.257812 134.796875 C 26.195312 140.6875 28.617188 140.683594 29.96875 140.367188 C 44.136719 137.058594 40.875 144.433594 32.195312 141.878906 C 16.566406 137.277344 15.746094 152.617188 15.746094 152.617188 C 20.605469 146.289062 40.269531 151.976562 46.234375 164.867188 C 43.519531 161.355469 39.835938 158.628906 35.582031 157.101562 C 47.570312 170.203125 31.324219 193.523438 58.191406 216.476562 C 53.871094 195.355469 63.839844 178.132812 79.691406 169.035156 C 91.464844 162.277344 101.722656 162.625 101.722656 162.625 C 77.496094 153.871094 69.851562 164.035156 69.851562 164.035156 C 68.128906 168.804688 64.652344 172.761719 60.164062 175.070312 C 65.160156 170.035156 66.992188 164.011719 68.0625 159.636719 C 68.859375 156.382812 80.859375 153.320312 87.996094 156.972656 C 87.996094 156.972656 80.792969 149.253906 68.160156 148.105469 C 84.257812 146.53125 92.046875 154.558594 92.046875 154.558594 " fill-opacity="1" fill-rule="nonzero"/></g><g clip-path="url(#2e8d147023)"><path fill="#568203" d="M 71.019531 181.3125 C 71.019531 181.3125 83.777344 156.878906 150.769531 166.492188 C 217.761719 176.105469 226.132812 157.28125 226.132812 157.28125 C 226.132812 157.28125 223.242188 181.710938 162.597656 178.242188 C 120.597656 175.839844 97.191406 165.6875 71.019531 181.3125 " fill-opacity="1" fill-rule="nonzero"/></g><g fill="#21211d" fill-opacity="1"><g transform="translate(68.48284, 224.970342)"><g><path d="M 39.375 0 L 28.296875 0 L 28.296875 -16.640625 L 15.484375 -16.640625 L 15.484375 0 L 4.40625 0 L 4.40625 -40.796875 L 15.484375 -40.796875 L 15.484375 -25.671875 L 28.296875 -25.671875 L 28.296875 -40.796875 L 39.375 -40.796875 Z M 39.375 0 "/></g></g></g><g fill="#21211d" fill-opacity="1"><g transform="translate(115.580845, 224.970342)"><g><path d="M 29.4375 0 L 27.4375 -7.640625 L 14.171875 -7.640625 L 12.109375 0 L 0 0 L 13.3125 -40.96875 L 28.015625 -40.96875 L 41.5 0 Z M 25.140625 -16.6875 L 23.390625 -23.390625 C 22.972656 -24.878906 22.472656 -26.800781 21.890625 -29.15625 C 21.304688 -31.519531 20.921875 -33.21875 20.734375 -34.25 C 20.566406 -33.289062 20.234375 -31.722656 19.734375 -29.546875 C 19.242188 -27.378906 18.15625 -23.09375 16.46875 -16.6875 Z M 25.140625 -16.6875 "/></g></g></g><g fill="#21211d" fill-opacity="1"><g transform="translate(160.390664, 224.970342)"><g><path d="M 48.484375 0 L 35.4375 0 L 31.53125 -17.78125 C 31.34375 -18.519531 31.050781 -19.992188 30.65625 -22.203125 C 30.257812 -24.421875 29.96875 -26.273438 29.78125 -27.765625 C 29.632812 -26.554688 29.390625 -25.050781 29.046875 -23.25 C 28.710938 -21.457031 28.382812 -19.804688 28.0625 -18.296875 C 27.738281 -16.796875 26.382812 -10.695312 24 0 L 10.96875 0 L 0.859375 -40.796875 L 11.5 -40.796875 L 15.9375 -20.34375 C 16.9375 -15.820312 17.625 -12.222656 18 -9.546875 C 18.238281 -11.441406 18.671875 -14.015625 19.296875 -17.265625 C 19.921875 -20.523438 20.503906 -23.226562 21.046875 -25.375 L 24.640625 -40.796875 L 34.859375 -40.796875 L 38.34375 -25.375 C 38.9375 -22.894531 39.539062 -20.035156 40.15625 -16.796875 C 40.769531 -13.554688 41.179688 -11.140625 41.390625 -9.546875 C 41.628906 -11.609375 42.289062 -15.191406 43.375 -20.296875 L 47.890625 -40.796875 L 58.53125 -40.796875 Z M 48.484375 0 "/></g></g></g><g fill="#21211d" fill-opacity="1"><g transform="translate(223.087407, 224.970342)"><g><path d="M 39.265625 0 L 26.8125 0 L 18.75 -15.59375 L 15.484375 -13.640625 L 15.484375 0 L 4.40625 0 L 4.40625 -40.796875 L 15.484375 -40.796875 L 15.484375 -23.078125 C 16.046875 -24.179688 17.171875 -25.921875 18.859375 -28.296875 L 27.4375 -40.796875 L 39.484375 -40.796875 L 26.625 -22.515625 Z M 39.265625 0 "/></g></g></g><g fill="#21211d" fill-opacity="1"><g transform="translate(265.664851, 224.970342)"><g><path d="M 28.640625 0 L 4.40625 0 L 4.40625 -40.796875 L 28.640625 -40.796875 L 28.640625 -31.953125 L 15.4375 -31.953125 L 15.4375 -25.53125 L 27.65625 -25.53125 L 27.65625 -16.6875 L 15.4375 -16.6875 L 15.4375 -8.984375 L 28.640625 -8.984375 Z M 28.640625 0 "/></g></g></g><g fill="#21211d" fill-opacity="1"><g transform="translate(300.345259, 224.970342)"><g><path d="M 43.265625 0 L 28.796875 0 L 13.890625 -28.75 L 13.640625 -28.75 C 13.992188 -24.226562 14.171875 -20.773438 14.171875 -18.390625 L 14.171875 0 L 4.40625 0 L 4.40625 -40.796875 L 18.8125 -40.796875 L 33.65625 -12.453125 L 33.828125 -12.453125 C 33.566406 -16.554688 33.4375 -19.859375 33.4375 -22.359375 L 33.4375 -40.796875 L 43.265625 -40.796875 Z M 43.265625 0 "/></g></g></g><g fill="#568203" fill-opacity="1"><g transform="translate(138.08375, 255.104159)"><g><path d="M 15.609375 -6.21875 C 15.609375 -4.945312 15.285156 -3.816406 14.640625 -2.828125 C 13.992188 -1.847656 13.0625 -1.082031 11.84375 -0.53125 C 10.632812 0.0078125 9.210938 0.28125 7.578125 0.28125 C 6.210938 0.28125 5.066406 0.1875 4.140625 0 C 3.222656 -0.195312 2.265625 -0.535156 1.265625 -1.015625 L 1.265625 -5.9375 C 2.316406 -5.394531 3.410156 -4.972656 4.546875 -4.671875 C 5.691406 -4.367188 6.738281 -4.21875 7.6875 -4.21875 C 8.507812 -4.21875 9.113281 -4.359375 9.5 -4.640625 C 9.882812 -4.929688 10.078125 -5.300781 10.078125 -5.75 C 10.078125 -6.03125 10 -6.273438 9.84375 -6.484375 C 9.6875 -6.691406 9.4375 -6.898438 9.09375 -7.109375 C 8.757812 -7.328125 7.851562 -7.769531 6.375 -8.4375 C 5.039062 -9.039062 4.039062 -9.628906 3.375 -10.203125 C 2.707031 -10.773438 2.210938 -11.425781 1.890625 -12.15625 C 1.566406 -12.894531 1.40625 -13.769531 1.40625 -14.78125 C 1.40625 -16.664062 2.085938 -18.132812 3.453125 -19.1875 C 4.828125 -20.25 6.71875 -20.78125 9.125 -20.78125 C 11.25 -20.78125 13.410156 -20.289062 15.609375 -19.3125 L 13.921875 -15.03125 C 12.003906 -15.914062 10.347656 -16.359375 8.953125 -16.359375 C 8.234375 -16.359375 7.707031 -16.226562 7.375 -15.96875 C 7.050781 -15.71875 6.890625 -15.40625 6.890625 -15.03125 C 6.890625 -14.632812 7.097656 -14.273438 7.515625 -13.953125 C 7.929688 -13.640625 9.0625 -13.0625 10.90625 -12.21875 C 12.664062 -11.425781 13.890625 -10.570312 14.578125 -9.65625 C 15.265625 -8.75 15.609375 -7.601562 15.609375 -6.21875 Z M 15.609375 -6.21875 "/></g></g></g><g fill="#568203" fill-opacity="1"><g transform="translate(160.877149, 255.104159)"><g><path d="M 11.25 0 L 5.71875 0 L 5.71875 -15.96875 L 0.71875 -15.96875 L 0.71875 -20.484375 L 16.25 -20.484375 L 16.25 -15.96875 L 11.25 -15.96875 Z M 11.25 0 "/></g></g></g><g fill="#568203" fill-opacity="1"><g transform="translate(184.062903, 255.104159)"><g><path d="M 19.640625 -20.484375 L 19.640625 -8.15625 C 19.640625 -5.476562 18.878906 -3.398438 17.359375 -1.921875 C 15.835938 -0.453125 13.648438 0.28125 10.796875 0.28125 C 7.992188 0.28125 5.84375 -0.429688 4.34375 -1.859375 C 2.851562 -3.296875 2.109375 -5.351562 2.109375 -8.03125 L 2.109375 -20.484375 L 7.671875 -20.484375 L 7.671875 -8.46875 C 7.671875 -7.019531 7.941406 -5.96875 8.484375 -5.3125 C 9.023438 -4.65625 9.820312 -4.328125 10.875 -4.328125 C 12.007812 -4.328125 12.828125 -4.648438 13.328125 -5.296875 C 13.835938 -5.953125 14.09375 -7.019531 14.09375 -8.5 L 14.09375 -20.484375 Z M 19.640625 -20.484375 "/></g></g></g><g fill="#568203" fill-opacity="1"><g transform="translate(212.012969, 255.104159)"><g><path d="M 19.609375 -10.671875 C 19.609375 -7.253906 18.664062 -4.617188 16.78125 -2.765625 C 14.894531 -0.921875 12.25 0 8.84375 0 L 2.21875 0 L 2.21875 -20.484375 L 9.3125 -20.484375 C 12.59375 -20.484375 15.128906 -19.640625 16.921875 -17.953125 C 18.710938 -16.273438 19.609375 -13.847656 19.609375 -10.671875 Z M 13.859375 -10.484375 C 13.859375 -12.359375 13.484375 -13.75 12.734375 -14.65625 C 11.992188 -15.5625 10.867188 -16.015625 9.359375 -16.015625 L 7.75 -16.015625 L 7.75 -4.546875 L 8.984375 -4.546875 C 10.660156 -4.546875 11.890625 -5.03125 12.671875 -6 C 13.460938 -6.976562 13.859375 -8.472656 13.859375 -10.484375 Z M 13.859375 -10.484375 "/></g></g></g><g fill="#568203" fill-opacity="1"><g transform="translate(239.304435, 255.104159)"><g><path d="M 2.21875 0 L 2.21875 -20.484375 L 7.78125 -20.484375 L 7.78125 0 Z M 2.21875 0 "/></g></g></g><g fill="#568203" fill-opacity="1"><g transform="translate(255.525886, 255.104159)"><g><path d="M 21.390625 -10.265625 C 21.390625 -6.816406 20.539062 -4.195312 18.84375 -2.40625 C 17.15625 -0.613281 14.679688 0.28125 11.421875 0.28125 C 8.203125 0.28125 5.734375 -0.617188 4.015625 -2.421875 C 2.304688 -4.222656 1.453125 -6.847656 1.453125 -10.296875 C 1.453125 -13.710938 2.304688 -16.316406 4.015625 -18.109375 C 5.722656 -19.910156 8.203125 -20.8125 11.453125 -20.8125 C 14.710938 -20.8125 17.179688 -19.914062 18.859375 -18.125 C 20.546875 -16.34375 21.390625 -13.722656 21.390625 -10.265625 Z M 7.28125 -10.265625 C 7.28125 -6.304688 8.660156 -4.328125 11.421875 -4.328125 C 12.828125 -4.328125 13.867188 -4.804688 14.546875 -5.765625 C 15.222656 -6.734375 15.5625 -8.234375 15.5625 -10.265625 C 15.5625 -12.316406 15.21875 -13.828125 14.53125 -14.796875 C 13.84375 -15.773438 12.816406 -16.265625 11.453125 -16.265625 C 8.671875 -16.265625 7.28125 -14.265625 7.28125 -10.265625 Z M 7.28125 -10.265625 "/></g></g></g></svg>